<svg width="24" height="24" viewBox="0 0 22.8573 24" fill="none" xmlns="http://www.w3.org/2000/svg">
<path d="M18.7129 6.62878L11.4277 2.47771L11.4005 2.46241H11.3988L4.17312 6.62878V14.9615H4.17482L4.18163 14.9666L11.3155 19.2129L18.6755 14.953L18.7129 14.9309L18.8081 14.8765L18.7129 6.62878ZM5.65601 7.39233L11.4005 4.07624L17.1433 7.39233V14.0245L11.4005 17.3406L5.65601 14.0245V7.39233Z" fill="black"/>
<path d="M22.8573 4.16468V12.5535L18.713 14.9462L18.6756 14.9683V6.6407L18.6144 6.60498L11.4278 2.47943L11.3988 2.46241L11.3921 2.45902L11.4295 2.43691L11.4346 2.43351L18.6705 6.57437L19.1313 6.30127L11.904 2.21074L15.6469 0.00170894L22.8573 4.16468Z" fill="black"/>
<path d="M18.7129 14.8952V15.135L18.7095 14.9513L11.4005 19.2435V19.8795L18.7129 15.6162V19.8064L11.4039 24L11.4005 23.9983L4.17479 19.7894V14.9598L4.18159 14.9632L11.3512 19.1398L11.4005 19.1109L18.6755 14.9173L18.7129 14.8952Z" fill="black"/>
<path d="M11.4652 2.45731L11.4277 2.47771L11.4278 2.47943L4.31602 6.56246L4.18168 6.63899L4.18163 14.9666L4.17488 14.9632L4.17312 14.9615L4.14937 14.9479H4.17147L4.18168 6.9723L3.63244 6.63899V14.5884L0 12.5518V4.16467L0.0561185 4.13236L7.21038 0L11.4295 2.43691L11.4652 2.45731Z" fill="black"/>
</svg>
