<svg width="111" height="25" viewBox="0 0 111 25" fill="none" xmlns="http://www.w3.org/2000/svg"><path d="M18.7129 6.62878L11.4277 2.47771L11.4005 2.46241H11.3988L4.17312 6.62878V14.9615H4.17482L4.18163 14.9666L11.3155 19.2129L18.6755 14.953L18.7129 14.9309L18.8081 14.8765L18.7129 6.62878ZM5.65601 7.39233L11.4005 4.07624L17.1433 7.39233V14.0245L11.4005 17.3406L5.65601 14.0245V7.39233Z" fill="white"/><path d="M22.8573 4.16468V12.5535L18.713 14.9462L18.6756 14.9683V6.6407L18.6144 6.60498L11.4278 2.47943L11.3988 2.46241L11.3921 2.45902L11.4295 2.43691L11.4346 2.43351L18.6705 6.57437L19.1313 6.30127L11.904 2.21074L15.6469 0.00170894L22.8573 4.16468Z" fill="white"/><path d="M18.7129 14.8952V15.135L18.7095 14.9513L11.4005 19.2435V19.8795L18.7129 15.6162V19.8064L11.4039 24L11.4005 23.9983L4.17479 19.7894V14.9598L4.18159 14.9632L11.3512 19.1398L11.4005 19.1109L18.6755 14.9173L18.7129 14.8952Z" fill="white"/><path d="M11.4652 2.45731L11.4277 2.47771L11.4278 2.47943L4.31602 6.56246L4.18168 6.63899L4.18163 14.9666L4.17488 14.9632L4.17312 14.9615L4.14937 14.9479H4.17147L4.18168 6.9723L3.63244 6.63899V14.5884L0 12.5518V4.16467L0.0561185 4.13236L7.21038 0L11.4295 2.43691L11.4652 2.45731Z" fill="white"/><path d="M93.2785 19.7062C92.8074 19.7062 92.4256 19.3244 92.4256 18.8533V5.14671C92.4256 4.67567 92.8074 4.29383 93.2785 4.29383H101.086C102.589 4.29383 103.917 4.47556 105.07 4.83903C106.223 5.20249 107.163 5.72323 107.89 6.40123C108.624 7.07225 109.176 7.87956 109.547 8.82318C109.917 9.7598 110.103 10.8187 110.103 12C110.103 13.1813 109.917 14.2437 109.547 15.1873C109.176 16.124 108.624 16.9313 107.89 17.6093C107.163 18.2803 106.223 18.7975 105.07 19.161C103.917 19.5245 102.589 19.7062 101.086 19.7062H93.2785ZM96.4621 15.3515C96.4621 15.8225 96.844 16.2043 97.315 16.2043H100.887C102.522 16.2043 103.756 15.8793 104.588 15.2293C105.426 14.5722 105.846 13.4958 105.846 12C105.846 11.2242 105.734 10.5601 105.51 10.0079C105.287 9.45575 104.955 9.01889 104.514 8.69736C104.074 8.36884 103.557 8.13119 102.963 7.98441C102.368 7.83763 101.676 7.76423 100.887 7.76423H97.315C96.844 7.76423 96.4621 8.14608 96.4621 8.61711V15.3515Z" fill="white"/><path d="M76.2708 19.7062C75.7998 19.7062 75.4179 19.3244 75.4179 18.8533V5.14671C75.4179 4.67567 75.7998 4.29383 76.2708 4.29383H78.6016C79.0726 4.29383 79.4545 4.67568 79.4545 5.14671V15.3724C79.4545 15.8435 79.8363 16.2253 80.3074 16.2253H86.7901C87.2611 16.2253 87.643 16.6072 87.643 17.0782V18.8533C87.643 19.3244 87.2611 19.7062 86.7901 19.7062H76.2708Z" fill="white"/><path d="M56.3064 19.7062C55.8353 19.7062 55.4535 19.3244 55.4535 18.8533V5.14671C55.4535 4.67567 55.8353 4.29383 56.3064 4.29383H68.975C69.446 4.29383 69.8279 4.67568 69.8279 5.14671V6.91135C69.8279 7.38239 69.446 7.76423 68.975 7.76423H60.3429C59.8719 7.76423 59.4901 8.14608 59.4901 8.61711V9.42766C59.4901 9.89869 59.8719 10.2805 60.3429 10.2805H68.7548C69.2259 10.2805 69.6077 10.6624 69.6077 11.1334V12.8666C69.6077 13.3376 69.2259 13.7195 68.7548 13.7195H60.3429C59.8719 13.7195 59.4901 14.1013 59.4901 14.5724V15.3724C59.4901 15.8435 59.8719 16.2253 60.3429 16.2253H68.975C69.446 16.2253 69.8279 16.6072 69.8279 17.0782V18.8533C69.8279 19.3244 69.446 19.7062 68.975 19.7062H56.3064Z" fill="white"/><path d="M30.5335 19.7062C30.0625 19.7062 29.6806 19.3244 29.6806 18.8533V5.14671C29.6806 4.67567 30.0625 4.29383 30.5335 4.29383H36.1712C36.5399 4.29383 36.8668 4.53074 36.9817 4.88109L38.8454 10.5681C39.1016 11.3497 40.2068 11.3515 40.4655 10.5707L42.3515 4.87846C42.4672 4.52945 42.7935 4.29383 43.1611 4.29383H48.8009C49.272 4.29383 49.6538 4.67568 49.6538 5.14671V18.8533C49.6538 19.3244 49.272 19.7062 48.8009 19.7062H46.4491C45.9781 19.7062 45.5963 19.3244 45.5963 18.8533V7.74122C45.5963 7.6497 45.5221 7.57551 45.4306 7.57551C45.3602 7.57551 45.2976 7.61989 45.2742 7.68623L41.2464 19.1363C41.1263 19.4778 40.8038 19.7062 40.4419 19.7062H38.9036C38.5414 19.7062 38.2187 19.4775 38.0988 19.1357L34.0869 7.70273C34.0601 7.62652 33.9882 7.57551 33.9074 7.57551C33.8024 7.57551 33.7172 7.66066 33.7172 7.76571V18.8533C33.7172 19.3244 33.3354 19.7062 32.8643 19.7062H30.5335Z" fill="white"/></svg>